<svg id="visual" viewBox="0 0 1024 600" width="1024" height="600" xmlns="http://www.w3.org/2000/svg" xmlns:xlink="http://www.w3.org/1999/xlink" version="1.1"><rect x="0" y="0" width="1024" height="600" fill="#e0ecff"></rect><defs><linearGradient id="grad1_0" x1="41.4%" y1="100%" x2="100%" y2="0%"><stop offset="15.866666666666665%" stop-color="#e0ecff" stop-opacity="1"></stop><stop offset="84.13333333333333%" stop-color="#e0ecff" stop-opacity="1"></stop></linearGradient></defs><defs><linearGradient id="grad2_0" x1="0%" y1="100%" x2="58.6%" y2="0%"><stop offset="15.866666666666665%" stop-color="#e0ecff" stop-opacity="1"></stop><stop offset="84.13333333333333%" stop-color="#e0ecff" stop-opacity="1"></stop></linearGradient></defs><g transform="translate(1024, 600)"><path d="M-445.1 0C-403.3 -45.3 -361.5 -90.5 -340.9 -141.2C-320.4 -191.9 -321.1 -248 -297 -297C-272.9 -345.9 -224 -387.7 -170.3 -411.2C-116.7 -434.7 -58.3 -439.9 0 -445.1L0 0Z" fill="#b6d6fb"></path></g><g transform="translate(0, 0)"><path d="M445.1 0C404.8 46.8 364.5 93.5 340.9 141.2C317.3 188.9 310.5 237.4 286.4 286.4C262.3 335.3 220.9 384.7 170.3 411.2C119.7 437.7 59.9 441.4 0 445.1L0 0Z" fill="#b6d6fb"></path></g></svg>