<svg xmlns="http://www.w3.org/2000/svg" version="1.1" xmlns:xlink="http://www.w3.org/1999/xlink" xmlns:svgjs="http://svgjs.dev/svgjs" width="1440" height="560" preserveAspectRatio="none" viewBox="0 0 1440 560"><g mask="url(&quot;#SvgjsMask1089&quot;)" fill="none"><rect width="1440" height="560" x="0" y="0" fill="rgba(224, 236, 255, 1)"></rect><path d="M1309.4588535508801 424.2794158052497L1225.6353388532746 454.78868008675363 1256.1446031347787 538.6121947843591 1339.968117832384 508.1029305028552z" fill="rgba(121, 181, 245, 0.4)" class="triangle-float2"></path><path d="M564.6354457726815 620.5110948501003L617.8414822140147 552.4104737248558 549.7408610887701 499.20443728352257 496.53482464743695 567.3050584087671z" fill="rgba(121, 181, 245, 0.4)" class="triangle-float1"></path><path d="M367.52316450402634 241.80421346809743L464.55887691831805 188.01643976268775 410.7711032129084 90.98072734839602 313.73539079861666 144.76850105380572z" fill="rgba(121, 181, 245, 0.4)" class="triangle-float1"></path><path d="M1299.861,499.573C1340.946,500.081,1383.164,489.78,1406.194,455.753C1432.087,417.496,1438.497,367.634,1416.746,326.879C1393.797,283.88,1348.486,253.172,1299.861,256.522C1255.289,259.592,1228.446,301.594,1207.895,341.265C1189.432,376.906,1177.823,418.473,1197.986,453.18C1218.075,487.761,1259.871,499.079,1299.861,499.573" fill="rgba(121, 181, 245, 0.4)" class="triangle-float1"></path><path d="M576.0595472868223 121.86200555431657L549.0252016853475 249.0486018610616 676.2117979920924 276.0829474625365 703.2461435935674 148.89635115579142z" fill="rgba(121, 181, 245, 0.4)" class="triangle-float1"></path></g><defs><mask id="SvgjsMask1089"><rect width="1440" height="560" fill="#ffffff"></rect></mask><style>
                @keyframes float1 {
                    0%{transform: translate(0, 0)}
                    50%{transform: translate(-10px, 0)}
                    100%{transform: translate(0, 0)}
                }

                .triangle-float1 {
                    animation: float1 5s infinite;
                }

                @keyframes float2 {
                    0%{transform: translate(0, 0)}
                    50%{transform: translate(-5px, -5px)}
                    100%{transform: translate(0, 0)}
                }

                .triangle-float2 {
                    animation: float2 4s infinite;
                }

                @keyframes float3 {
                    0%{transform: translate(0, 0)}
                    50%{transform: translate(0, -10px)}
                    100%{transform: translate(0, 0)}
                }

                .triangle-float3 {
                    animation: float3 6s infinite;
                }
            </style></defs></svg>