<svg id="visual" viewBox="0 0 900 600" width="900" height="600" xmlns="http://www.w3.org/2000/svg" xmlns:xlink="http://www.w3.org/1999/xlink" version="1.1"><rect x="0" y="0" width="900" height="600" fill="#001220"></rect><path d="M0 367L21.5 369.3C43 371.7 86 376.3 128.8 382.8C171.7 389.3 214.3 397.7 257.2 401.8C300 406 343 406 385.8 411.7C428.7 417.3 471.3 428.7 514.2 433.5C557 438.3 600 436.7 642.8 428.7C685.7 420.7 728.3 406.3 771.2 404C814 401.7 857 411.3 878.5 416.2L900 421L900 601L878.5 601C857 601 814 601 771.2 601C728.3 601 685.7 601 642.8 601C600 601 557 601 514.2 601C471.3 601 428.7 601 385.8 601C343 601 300 601 257.2 601C214.3 601 171.7 601 128.8 601C86 601 43 601 21.5 601L0 601Z" fill="#7269fa"></path><path d="M0 436L21.5 440.8C43 445.7 86 455.3 128.8 459.7C171.7 464 214.3 463 257.2 462.3C300 461.7 343 461.3 385.8 456.3C428.7 451.3 471.3 441.7 514.2 436.2C557 430.7 600 429.3 642.8 435.7C685.7 442 728.3 456 771.2 464.3C814 472.7 857 475.3 878.5 476.7L900 478L900 601L878.5 601C857 601 814 601 771.2 601C728.3 601 685.7 601 642.8 601C600 601 557 601 514.2 601C471.3 601 428.7 601 385.8 601C343 601 300 601 257.2 601C214.3 601 171.7 601 128.8 601C86 601 43 601 21.5 601L0 601Z" fill="#6459ee"></path><path d="M0 448L21.5 448C43 448 86 448 128.8 447C171.7 446 214.3 444 257.2 449.5C300 455 343 468 385.8 467.7C428.7 467.3 471.3 453.7 514.2 455.3C557 457 600 474 642.8 479.8C685.7 485.7 728.3 480.3 771.2 478.7C814 477 857 479 878.5 480L900 481L900 601L878.5 601C857 601 814 601 771.2 601C728.3 601 685.7 601 642.8 601C600 601 557 601 514.2 601C471.3 601 428.7 601 385.8 601C343 601 300 601 257.2 601C214.3 601 171.7 601 128.8 601C86 601 43 601 21.5 601L0 601Z" fill="#5648e1"></path><path d="M0 505L21.5 508.7C43 512.3 86 519.7 128.8 517C171.7 514.3 214.3 501.7 257.2 503.2C300 504.7 343 520.3 385.8 522C428.7 523.7 471.3 511.3 514.2 507C557 502.7 600 506.3 642.8 511.5C685.7 516.7 728.3 523.3 771.2 528.7C814 534 857 538 878.5 540L900 542L900 601L878.5 601C857 601 814 601 771.2 601C728.3 601 685.7 601 642.8 601C600 601 557 601 514.2 601C471.3 601 428.7 601 385.8 601C343 601 300 601 257.2 601C214.3 601 171.7 601 128.8 601C86 601 43 601 21.5 601L0 601Z" fill="#4837d4"></path><path d="M0 544L21.5 548C43 552 86 560 128.8 561.8C171.7 563.7 214.3 559.3 257.2 556.8C300 554.3 343 553.7 385.8 550.2C428.7 546.7 471.3 540.3 514.2 540.5C557 540.7 600 547.3 642.8 552.5C685.7 557.7 728.3 561.3 771.2 558.2C814 555 857 545 878.5 540L900 535L900 601L878.5 601C857 601 814 601 771.2 601C728.3 601 685.7 601 642.8 601C600 601 557 601 514.2 601C471.3 601 428.7 601 385.8 601C343 601 300 601 257.2 601C214.3 601 171.7 601 128.8 601C86 601 43 601 21.5 601L0 601Z" fill="#3824c7"></path></svg>