<svg xmlns="http://www.w3.org/2000/svg" viewBox="0 0 1600 800" height="100%" width="100%"><g xmlns="http://www.w3.org/2000/svg" transform="matrix(-1 0 0 -1 1600 800)"><rect fill="#4D8FD8" width="1600" height="800" /><g fill-opacity="1"><polygon fill="#6697da" points="800 100 0 200 0 800 1600 800 1600 200" /><polygon fill="#7fa2de" points="800 200 0 400 0 800 1600 800 1600 400" /><polygon fill="#97aee2" points="800 300 0 600 0 800 1600 800 1600 600" /><polygon fill="#aebde6" points="1600 800 800 400 0 800" /><polygon fill="#c4cdec" points="1280 800 800 500 320 800" /><polygon fill="#dadef2" points="533.3 800 1066.7 800 800 600" /><polygon fill="#EFF0F9" points="684.1 800 914.3 800 800 700" /></g></g></svg>